<svg id="Layer_1" data-name="Layer 1" xmlns="http://www.w3.org/2000/svg" viewBox="0 0 502 145.83"><defs><style>.cls-1{fill:#231f20;}</style></defs><path class="cls-1" d="M83.82,122.11H34.15a17.52,17.52,0,0,1-17.48-17.48V46.45A17.5,17.5,0,0,1,34.15,29H83.82a17.5,17.5,0,0,1,17.49,17.48v58.18a17.52,17.52,0,0,1-17.49,17.48ZM81.63,48.3a.92.92,0,0,0-.76-.35H38a.9.9,0,0,0-.75.35.91.91,0,0,0-.34.76v53a1.19,1.19,0,0,0,1.12,1.1H80.84a.94.94,0,0,0,.79-.35A.93.93,0,0,0,82,102V49.08A.93.93,0,0,0,81.63,48.3Z" transform="translate(-16.67 -6.56)"/><path class="cls-1" d="M175.64,122.45H128.86v29.63l-20.2.31V29.49h67a17.5,17.5,0,0,1,17.48,17.45V105a17.5,17.5,0,0,1-17.48,17.45Zm-2.28-73.63c-.31-.32-.47-.34-.68-.34H128.86v55h43.82a.91.91,0,0,0,.76-.34.9.9,0,0,0,.35-.73V49.72A1.19,1.19,0,0,0,173.36,48.82Z" transform="translate(-16.67 -6.56)"/><path class="cls-1" d="M213.21,117a17.21,17.21,0,0,1-5.61-12.39V48.13h-9v-19h9V16.64h20.74v12.5h14.31v19H228.34v53.92l2.43.69a41.53,41.53,0,0,0,4.36.38h21.75v19H225.45A17.11,17.11,0,0,1,213.21,117Z" transform="translate(-16.67 -6.56)"/><path class="cls-1" d="M262.78,16.64H283V37.48h-20.2Zm0,30.47H283v75h-20.2Z" transform="translate(-16.67 -6.56)"/><path class="cls-1" d="M386.52,48.36a.92.92,0,0,0-.35-.76.86.86,0,0,0-.73-.34h-26v74.85h-20.2V47.34a1.55,1.55,0,0,0-.58-.08H310.86v75l-20.21-.62V28.38l4.53.07q11.28.16,93.71.17A17.52,17.52,0,0,1,406.37,46.1v76H386.52Z" transform="translate(-16.67 -6.56)"/><path class="cls-1" d="M417.64,117a17,17,0,0,1-5.13-12.35V83.44A17.5,17.5,0,0,1,430,66h46.95V49.06a.91.91,0,0,0-.34-.76.94.94,0,0,0-.79-.35H433a.62.62,0,0,0-.66.35c-.35.53-.81,1.88-.81,5v7.62h-19v-8.4c0-13.51,5-23.56,17.63-23.56h49.55a17.48,17.48,0,0,1,17.45,17.48v75.66H430A17,17,0,0,1,417.64,117ZM431.7,86.16a.94.94,0,0,0-.8.37.83.83,0,0,0-.32.73V102a.86.86,0,0,0,.32.73.94.94,0,0,0,.8.37H476v-17Z" transform="translate(-16.67 -6.56)"/><path class="cls-1" d="M507.15,6.56a11.86,11.86,0,0,1,5.67,1.49,10.61,10.61,0,0,1,4.31,4.27,11.57,11.57,0,0,1,0,11.5,10.67,10.67,0,0,1-4.26,4.27,11.53,11.53,0,0,1-11.48,0,10.7,10.7,0,0,1-4.27-4.27,11.5,11.5,0,0,1,0-11.5,10.63,10.63,0,0,1,4.32-4.27,11.86,11.86,0,0,1,5.67-1.49Zm0,1.91a9.82,9.82,0,0,0-4.73,1.25,9,9,0,0,0-3.6,3.55,9.58,9.58,0,0,0,0,9.6,9.05,9.05,0,0,0,3.57,3.56,9.57,9.57,0,0,0,9.56,0,9,9,0,0,0,3.56-3.56,9.64,9.64,0,0,0,0-9.6,8.85,8.85,0,0,0-3.6-3.55,9.84,9.84,0,0,0-4.72-1.25Zm-5.06,16V12.07h4.26a10.53,10.53,0,0,1,3.17.33,3.1,3.1,0,0,1,1.56,1.2,3.27,3.27,0,0,1,.58,1.82,3.33,3.33,0,0,1-1,2.37,3.86,3.86,0,0,1-2.58,1.13,3.15,3.15,0,0,1,1.05.66A14.55,14.55,0,0,1,511,22l1.51,2.43h-2.44l-1.11-2a9.84,9.84,0,0,0-2.09-2.88,2.52,2.52,0,0,0-1.6-.43h-1.18v5.27Zm2-7h2.43A4,4,0,0,0,508.9,17a1.71,1.71,0,0,0,.63-1.38,1.66,1.66,0,0,0-.31-1,1.82,1.82,0,0,0-.84-.64,6,6,0,0,0-2-.22h-2.28Z" transform="translate(-16.67 -6.56)"/></svg>